# Blender 4.2.0
# www.blender.org
mtllib wind_turbine.mtl
o Cube.021
v -31.478081 0.040381 -34.059608
v -33.478081 0.040381 -34.059608
v -31.478081 3.040381 -34.059608
v -31.478081 0.040381 -38.059608
v -33.478081 0.040381 -38.059608
v -31.478081 3.040381 -38.059608
v -33.478081 3.040381 -38.059608
v -33.478081 3.040381 -34.059608
v -38.331314 22.153099 -38.589375
v -36.331322 22.153099 -38.583797
v -38.331314 24.153101 -38.589375
v -38.346092 22.153099 -33.289394
v -36.346100 22.153099 -33.283817
v -38.346092 24.153101 -33.289394
v -36.346100 24.153101 -33.283817
v -36.331322 24.153101 -38.583797
v -37.064636 24.149824 -37.698219
v -37.562042 24.149824 -37.988743
v -37.066269 24.149824 -37.690994
v -36.774185 24.914761 -37.698208
v -36.775818 24.914761 -37.690987
v -37.562042 24.914761 -37.988743
v -36.919716 28.701427 -37.698215
v -37.064636 29.161230 -37.698219
v -36.921349 28.701427 -37.690990
v -37.562042 28.701427 -37.988743
v -37.562042 29.161230 -37.988743
v -37.563675 28.701427 -37.403240
v -37.563675 24.914761 -37.403240
v -37.563675 29.161230 -37.403240
v -37.066269 29.161230 -37.690994
v -37.358360 29.648701 -37.643566
v -37.358070 29.648701 -37.747272
v -37.270256 29.648701 -37.693974
v -37.324928 29.827562 -37.682697
v -37.324860 29.827562 -37.707954
v -37.303467 29.827562 -37.694458
v -37.303398 29.827562 -37.694771
v -37.269966 29.648701 -37.695255
v -37.563675 24.149824 -37.403240
v -36.332092 22.709288 -37.998611
v -36.411964 23.114401 -38.040325
v -36.312302 22.753941 -37.415146
v -36.233391 22.563730 -37.990818
v -35.873329 22.032738 -37.634121
v -35.911766 23.019739 -38.036625
v -36.213608 22.608385 -37.407352
v -35.853546 22.077391 -37.644260
v -35.891975 23.064394 -37.453159
v -36.392174 23.159056 -37.456860
v -35.400970 22.719063 -37.443382
v -32.304047 20.540964 -37.381718
v -35.420753 22.674410 -38.026848
v -32.323830 20.496309 -37.965183
v -31.947784 20.231831 -37.957695
v -32.692810 19.973166 -37.634987
v -32.233513 19.826715 -37.634911
v -32.673027 20.017818 -37.645126
v -32.213730 19.871370 -37.645050
v -31.927994 20.276484 -37.374229
v -31.925529 19.917904 -37.640167
v -31.899933 19.954195 -37.617973
v -31.927299 19.913904 -37.639259
v -31.895767 19.914272 -37.639832
v -31.888229 19.924963 -37.634705
v -31.896294 19.913095 -37.639565
v -31.888748 19.923784 -37.650101
v -31.901703 19.950197 -37.670242
v -38.329201 23.127554 -37.676807
v -38.372261 22.805410 -37.999329
v -38.298782 23.097237 -37.688656
v -38.873070 23.059786 -37.676842
v -39.466759 22.734165 -37.677128
v -38.457870 22.705238 -38.000069
v -38.842651 23.029470 -37.688690
v -39.436340 22.703848 -37.688976
v -38.427452 22.674923 -37.416138
v -38.341843 22.775095 -37.415398
v -38.838806 22.193600 -37.419701
v -41.298935 19.315029 -37.440994
v -38.869225 22.223915 -38.003628
v -41.329353 19.345345 -38.024925
v -41.628075 18.995810 -38.027512
v -41.816513 19.761343 -37.676479
v -42.005325 19.317951 -37.676212
v -41.786095 19.731028 -37.688328
v -41.974907 19.287636 -37.688061
v -41.597656 18.965494 -37.443581
v -41.962120 18.971342 -37.682056
v -41.943123 18.955122 -37.704887
v -41.963654 18.972870 -37.681461
v -41.967659 18.950939 -37.715534
v -41.963715 18.947569 -37.715916
v -41.967979 18.951256 -37.721642
v -41.964035 18.947887 -37.722023
v -41.944656 18.956648 -37.734291
v -37.345894 0.108770 -36.972961
v -37.150803 0.108770 -36.953747
v -37.345894 22.108770 -36.972961
v -37.540985 0.108770 -36.953747
v -37.728577 0.108770 -36.896843
v -37.540985 22.108770 -36.953747
v -37.728577 22.108770 -36.896843
v -37.901466 22.108770 -36.804432
v -38.053001 22.108770 -36.680069
v -37.901466 0.108770 -36.804432
v -38.053001 0.108770 -36.680069
v -38.177361 0.108770 -36.528530
v -38.269775 0.108770 -36.355644
v -38.177361 22.108770 -36.528530
v -38.269775 22.108770 -36.355644
v -38.326675 22.108770 -36.168053
v -38.345894 22.108770 -35.972961
v -38.326675 0.108770 -36.168053
v -38.345894 0.108770 -35.972961
v -38.326675 0.108770 -35.777870
v -38.269775 0.108770 -35.590279
v -38.326675 22.108770 -35.777870
v -38.269775 22.108770 -35.590279
v -38.177361 22.108770 -35.417393
v -38.053001 22.108770 -35.265854
v -38.177361 0.108770 -35.417393
v -38.053001 0.108770 -35.265854
v -37.901466 0.108770 -35.141491
v -37.728577 0.108770 -35.049084
v -37.901466 22.108770 -35.141491
v -37.728577 22.108770 -35.049084
v -37.540985 22.108770 -34.992176
v -37.345894 22.108770 -34.972961
v -37.540985 0.108770 -34.992176
v -37.345894 0.108770 -34.972961
v -37.150803 0.108770 -34.992176
v -36.963211 0.108770 -35.049084
v -37.150803 22.108770 -34.992176
v -36.963211 22.108770 -35.049084
v -36.790321 22.108770 -35.141491
v -36.638786 22.108770 -35.265854
v -36.790321 0.108770 -35.141491
v -36.638786 0.108770 -35.265854
v -36.514427 0.108770 -35.417393
v -36.422012 0.108770 -35.590279
v -36.514427 22.108770 -35.417393
v -36.422012 22.108770 -35.590279
v -36.365112 22.108770 -35.777870
v -36.345894 22.108770 -35.972961
v -36.365112 0.108770 -35.777870
v -36.345894 0.108770 -35.972961
v -36.365112 0.108770 -36.168053
v -36.422012 0.108770 -36.355644
v -36.365112 22.108770 -36.168053
v -36.422012 22.108770 -36.355644
v -36.514427 22.108770 -36.528530
v -36.638786 22.108770 -36.680069
v -36.514427 0.108770 -36.528530
v -36.638786 0.108770 -36.680069
v -36.790321 0.108770 -36.804432
v -36.963211 0.108770 -36.896843
v -36.790321 22.108770 -36.804432
v -36.963211 22.108770 -36.896843
v -37.150803 22.108770 -36.953747
vn -0.0000 -1.0000 -0.0000
vn -0.0000 -0.0000 1.0000
vn 1.0000 -0.0000 -0.0000
vn -0.0000 -0.0000 -1.0000
vn -0.0000 1.0000 -0.0000
vn -1.0000 -0.0000 -0.0000
vn 0.3860 -0.5132 -0.7666
vn 0.3822 -0.5111 0.7698
vn -0.3860 -0.5132 0.7666
vn -0.3822 -0.5111 -0.7698
vn -0.3822 0.5111 -0.7698
vn 0.3860 0.5132 -0.7666
vn -0.3860 0.5132 0.7666
vn 0.3822 0.5111 0.7698
vn -0.5149 0.7435 0.4267
vn -0.7933 0.1053 0.5996
vn 0.2252 0.0368 0.9736
vn 0.1975 0.4332 0.8794
vn 0.1994 0.4333 -0.8789
vn -0.4594 0.7266 -0.5109
vn -0.6934 0.0940 -0.7144
vn -0.6999 -0.0993 -0.7073
vn -0.7996 -0.1118 0.5901
vn 0.2173 -0.0410 0.9752
vn -0.7131 -0.2361 -0.6601
vn -0.8041 -0.2651 0.5321
vn 0.1912 -0.2408 0.9516
vn 0.2194 -0.0408 -0.9748
vn 0.2273 0.0366 -0.9731
vn 0.1933 -0.2400 -0.9513
vn 0.1535 -0.4073 0.9003
vn 0.1579 -0.4035 -0.9013
vn -0.7263 -0.2248 -0.6496
vn 0.1449 -0.5268 0.8375
vn 0.1519 -0.5368 -0.8299
vn -0.5152 -0.7196 -0.4655
vn -0.5701 -0.7382 0.3605
vn -0.8189 -0.2534 0.5150
vn 0.4854 0.2750 0.8299
vn 0.3412 0.4826 0.8066
vn -0.2431 -0.4086 0.8797
vn 0.3643 -0.4896 0.7922
vn 0.3798 -0.6082 -0.6970
vn 0.4319 0.1102 -0.8952
vn 0.2954 0.3109 -0.9034
vn 0.5715 0.8186 0.0573
vn -0.2813 -0.1614 0.9459
vn 0.2557 0.2450 -0.9352
vn -0.2775 -0.5456 -0.7908
vn -0.3208 -0.2912 -0.9013
vn -0.1738 -0.1637 0.9711
vn -0.2077 -0.2484 -0.9461
vn 0.0331 0.0386 -0.9987
vn 0.4177 0.6366 -0.6483
vn -0.3425 0.0572 0.9378
vn -0.3575 -0.0084 -0.9339
vn 0.1344 0.7669 -0.6275
vn 0.0396 0.0479 -0.9981
vn -0.5829 0.4078 -0.7028
vn -0.0153 0.1911 -0.9815
vn -0.0844 0.5797 -0.8104
vn -0.5703 0.3489 -0.7437
vn -0.2992 0.3696 -0.8797
vn -0.2224 0.7607 -0.6098
vn -0.5517 0.4514 0.7014
vn -0.6407 0.4614 0.6137
vn -0.2929 -0.0576 -0.9544
vn 0.4463 -0.5495 -0.7063
vn -0.2992 -0.0349 0.9536
vn -0.4319 -0.2836 0.8562
vn -0.4556 -0.2563 -0.8525
vn -0.3466 -0.1046 -0.9322
vn 0.0422 -0.0000 -0.9991
vn 0.5691 -0.4076 -0.7141
vn -0.1967 0.1227 0.9728
vn 0.0096 0.0034 -0.9999
vn -0.3270 0.0105 -0.9450
vn -0.2373 0.1688 -0.9567
vn -0.1397 0.1828 0.9732
vn -0.1947 0.2233 -0.9551
vn 0.0031 -0.0274 -0.9996
vn 0.4758 -0.4422 -0.7603
vn 0.0340 0.4476 0.8936
vn -0.0258 0.4789 -0.8775
vn 0.4821 -0.2557 -0.8380
vn -0.0165 -0.0515 -0.9985
vn 0.0697 0.9290 -0.3635
vn 0.5834 0.2174 -0.7826
vn 0.4303 -0.0751 -0.8996
vn 0.0635 0.9798 -0.1898
vn 0.6498 0.6658 -0.3667
vn 0.9179 -0.1371 0.3724
vn 0.3528 0.8117 0.4654
vn 0.4282 0.6885 0.5853
vn -0.0000 -0.5116 -0.8592
vn 0.1608 -0.5350 -0.8294
vn 0.3034 -0.5913 -0.7472
vn 0.4158 -0.6543 -0.6317
vn 0.4969 -0.7074 -0.5027
vn 0.5518 -0.7463 -0.3722
vn 0.5866 -0.7720 -0.2449
vn 0.6056 -0.7864 -0.1214
vn 0.6117 -0.7911 -0.0000
vn 0.6056 -0.7864 0.1214
vn 0.5866 -0.7720 0.2449
vn 0.5518 -0.7463 0.3722
vn 0.4969 -0.7074 0.5027
vn 0.4158 -0.6543 0.6317
vn 0.3034 -0.5913 0.7472
vn 0.1608 -0.5350 0.8294
vn -0.0000 -0.5116 0.8592
vn -0.1608 -0.5350 0.8294
vn -0.3034 -0.5913 0.7472
vn -0.4158 -0.6543 0.6317
vn -0.4969 -0.7074 0.5027
vn -0.5518 -0.7463 0.3722
vn -0.5866 -0.7720 0.2449
vn -0.6056 -0.7864 0.1214
vn -0.6117 -0.7911 -0.0000
vn -0.6056 -0.7864 -0.1214
vn -0.5866 -0.7720 -0.2449
vn -0.5518 -0.7463 -0.3722
vn -0.4969 -0.7074 -0.5027
vn -0.4158 -0.6543 -0.6317
vn -0.3034 -0.5913 -0.7472
vn -0.1608 -0.5350 -0.8294
vn -0.0000 0.5116 -0.8592
vn 0.1608 0.5350 -0.8294
vn -0.1608 0.5350 -0.8294
vn -0.3034 0.5913 -0.7472
vn -0.4158 0.6543 -0.6317
vn -0.4969 0.7074 -0.5027
vn -0.5518 0.7463 -0.3722
vn -0.5866 0.7720 -0.2449
vn -0.6056 0.7864 -0.1214
vn -0.6117 0.7911 -0.0000
vn -0.6056 0.7864 0.1214
vn -0.5866 0.7720 0.2449
vn -0.5518 0.7463 0.3722
vn -0.4969 0.7074 0.5027
vn -0.4158 0.6543 0.6317
vn -0.3034 0.5913 0.7472
vn -0.1608 0.5350 0.8294
vn -0.0000 0.5116 0.8592
vn 0.1608 0.5350 0.8294
vn 0.3034 0.5913 0.7472
vn 0.4158 0.6543 0.6317
vn 0.4969 0.7074 0.5027
vn 0.5518 0.7463 0.3722
vn 0.5866 0.7720 0.2449
vn 0.6056 0.7864 0.1214
vn 0.6117 0.7911 -0.0000
vn 0.6056 0.7864 -0.1214
vn 0.5866 0.7720 -0.2449
vn 0.5518 0.7463 -0.3722
vn 0.4969 0.7074 -0.5027
vn 0.4158 0.6543 -0.6317
vn 0.3034 0.5913 -0.7472
vt 0.744025 0.004006
vt 0.744025 0.274519
vt 0.676475 0.274483
vt 0.676475 0.003970
vt 0.751881 0.695541
vt 0.751881 0.560801
vt 0.819513 0.560790
vt 0.819513 0.695530
vt 0.438772 0.274481
vt 0.303510 0.274468
vt 0.303510 0.003970
vt 0.438772 0.003983
vt 0.303510 0.696370
vt 0.303510 0.561163
vt 0.370921 0.561003
vt 0.370921 0.696210
vt 0.676475 0.552645
vt 0.676475 0.282459
vt 0.743984 0.282664
vt 0.743984 0.552850
vt 0.303510 0.282555
vt 0.438341 0.282421
vt 0.438341 0.552930
vt 0.303510 0.553063
vt 0.446712 0.728763
vt 0.446712 0.370334
vt 0.514262 0.370653
vt 0.514262 0.729082
vt 0.303510 0.794619
vt 0.303510 0.704481
vt 0.370890 0.704310
vt 0.370890 0.794448
vt 0.544827 0.004049
vt 0.634714 0.003970
vt 0.634714 0.362399
vt 0.544827 0.362478
vt 0.544827 0.826303
vt 0.544827 0.736476
vt 0.612458 0.736432
vt 0.612458 0.826259
vt 0.612336 0.370418
vt 0.612336 0.728415
vt 0.544827 0.728492
vt 0.544827 0.370495
vt 0.536887 0.362394
vt 0.446712 0.362386
vt 0.446712 0.003970
vt 0.536887 0.003978
vt 0.850448 0.488618
vt 0.840626 0.454264
vt 0.867232 0.452530
vt 0.867232 0.486886
vt 0.724117 0.743373
vt 0.724117 0.703824
vt 0.740879 0.723335
vt 0.740934 0.723823
vt 0.751965 0.257530
vt 0.755163 0.222511
vt 0.755650 0.222550
vt 0.752452 0.257569
vt 0.769960 0.053365
vt 0.770448 0.053404
vt 0.845548 0.284192
vt 0.867232 0.282459
vt 0.771674 0.033164
vt 0.772162 0.033203
vt 0.791406 0.036265
vt 0.789598 0.056851
vt 0.751924 0.504018
vt 0.751924 0.333287
vt 0.791519 0.333284
vt 0.791519 0.504014
vt 0.751924 0.312556
vt 0.791519 0.312552
vt 0.840315 0.195354
vt 0.840315 0.024693
vt 0.863541 0.025209
vt 0.868446 0.195858
vt 0.840315 0.003970
vt 0.858656 0.004498
vt 0.768149 0.290531
vt 0.775162 0.290531
vt 0.751965 0.032765
vt 0.770205 0.011833
vt 0.773658 0.011900
vt 0.770791 0.282459
vt 0.772499 0.282459
vt 0.773566 0.003970
vt 0.774373 0.003983
vt 0.531154 0.520363
vt 0.531154 0.522071
vt 0.530428 0.521180
vt 0.530430 0.521159
vt 0.773745 0.011907
vt 0.774394 0.003985
vt 0.777191 0.012452
vt 0.775268 0.004121
vt 0.751924 0.538507
vt 0.791519 0.538503
vt 0.840315 0.229829
vt 0.858656 0.230356
vt 0.819520 0.297043
vt 0.822040 0.303981
vt 0.799459 0.297722
vt 0.807911 0.282459
vt 0.446712 0.737022
vt 0.486086 0.740155
vt 0.486466 0.758609
vt 0.447092 0.755476
vt 0.486086 0.765157
vt 0.446712 0.762024
vt 0.832687 0.330598
vt 0.799459 0.320484
vt 0.466910 0.786707
vt 0.467338 0.788798
vt 0.823916 0.003970
vt 0.832375 0.019129
vt 0.809851 0.025079
vt 0.812365 0.018209
vt 0.832375 0.041768
vt 0.801294 0.051557
vt 0.715926 0.703824
vt 0.716177 0.720928
vt 0.676726 0.722569
vt 0.676475 0.705465
vt 0.716146 0.738286
vt 0.676695 0.739927
vt 0.715950 0.847769
vt 0.676499 0.849410
vt 0.832375 0.184559
vt 0.807265 0.193072
vt 0.826594 0.472335
vt 0.799459 0.464049
vt 0.715926 0.861063
vt 0.676475 0.862705
vt 0.820769 0.488165
vt 0.799459 0.481482
vt 0.813085 0.208847
vt 0.811137 0.209686
vt 0.805318 0.193911
vt 0.799346 0.052397
vt 0.832375 0.201897
vt 0.522202 0.500840
vt 0.522202 0.478854
vt 0.530670 0.493822
vt 0.530601 0.495670
vt 0.821272 0.214446
vt 0.821097 0.214521
vt 0.823005 0.213835
vt 0.822354 0.215113
vt 0.821841 0.215286
vt 0.821789 0.215308
vt 0.724654 0.769754
vt 0.724654 0.770797
vt 0.724117 0.770109
vt 0.724172 0.770124
vt 0.531485 0.454577
vt 0.531549 0.452347
vt 0.532466 0.452847
vt 0.532404 0.453588
vt 0.725875 0.768551
vt 0.725875 0.772090
vt 0.522202 0.470914
vt 0.522202 0.447401
vt 0.739404 0.751312
vt 0.739404 0.790818
vt 0.378861 0.764779
vt 0.397080 0.764779
vt 0.382323 0.786839
vt 0.379654 0.786745
vt 0.418341 0.575685
vt 0.378860 0.576807
vt 0.397402 0.562287
vt 0.396592 0.561003
vt 0.851878 0.561375
vt 0.838082 0.573837
vt 0.836417 0.573252
vt 0.850213 0.560790
vt 0.884264 0.560790
vt 0.893225 0.583952
vt 0.864844 0.590623
vt 0.864845 0.564936
vt 0.829118 0.597005
vt 0.827453 0.596421
vt 0.405713 0.764779
vt 0.408382 0.764872
vt 0.423238 0.783104
vt 0.405020 0.783104
vt 0.856905 0.580114
vt 0.856905 0.605883
vt 0.418341 0.580419
vt 0.378860 0.581541
vt 0.418341 0.603165
vt 0.378860 0.604287
vt 0.418341 0.739199
vt 0.378860 0.740321
vt 0.856905 0.759990
vt 0.834408 0.752717
vt 0.887726 0.739222
vt 0.864844 0.744243
vt 0.418341 0.755717
vt 0.378860 0.756839
vt 0.518194 0.737022
vt 0.518336 0.757054
vt 0.494405 0.771531
vt 0.494405 0.755707
vt 0.839785 0.773003
vt 0.838120 0.772419
vt 0.832744 0.752133
vt 0.856905 0.778703
vt 0.534195 0.417655
vt 0.534195 0.439461
vt 0.522202 0.426715
vt 0.523776 0.427397
vt 0.847773 0.784801
vt 0.847689 0.784771
vt 0.522389 0.386681
vt 0.523024 0.388247
vt 0.522327 0.389024
vt 0.522202 0.388994
vt 0.522202 0.520363
vt 0.522253 0.520425
vt 0.522355 0.522865
vt 0.522202 0.523248
vt 0.522488 0.522942
vt 0.522335 0.523326
vt 0.522202 0.512423
vt 0.522202 0.508780
vt 0.522806 0.511442
vt 0.522673 0.511495
vt 0.523024 0.390231
vt 0.522327 0.389436
vt 0.517981 0.772604
vt 0.514399 0.773337
vt 0.534287 0.370334
vt 0.534287 0.409716
vt 0.706886 0.695884
vt 0.700369 0.694259
vt 0.694230 0.690100
vt 0.688704 0.683568
vt 0.684006 0.674914
vt 0.680314 0.664469
vt 0.677771 0.652636
vt 0.676475 0.639870
vt 0.676475 0.626660
vt 0.677771 0.613514
vt 0.680314 0.600938
vt 0.684006 0.589415
vt 0.688705 0.579388
vt 0.694230 0.571242
vt 0.700369 0.565290
vt 0.706886 0.561761
vt 0.713531 0.560790
vt 0.720048 0.562415
vt 0.726187 0.566574
vt 0.731712 0.573106
vt 0.736411 0.581760
vt 0.740103 0.592205
vt 0.742646 0.604037
vt 0.743942 0.616804
vt 0.743942 0.630014
vt 0.742645 0.643160
vt 0.740103 0.655735
vt 0.736411 0.667258
vt 0.731712 0.677286
vt 0.726187 0.685432
vt 0.720048 0.691384
vt 0.713531 0.694913
vt 0.283089 0.995773
vt 0.283089 0.004258
vt 0.289559 0.004204
vt 0.289559 0.995720
vt 0.276408 0.995751
vt 0.276408 0.004235
vt 0.269774 0.995654
vt 0.269774 0.004138
vt 0.788910 0.837458
vt 0.782270 0.838410
vt 0.775758 0.836770
vt 0.769623 0.832601
vt 0.764102 0.826062
vt 0.759407 0.817405
vt 0.755718 0.806962
vt 0.753177 0.795136
vt 0.751881 0.782380
vt 0.751881 0.769184
vt 0.753177 0.756056
vt 0.755718 0.743500
vt 0.759407 0.731999
vt 0.764102 0.721995
vt 0.769623 0.713872
vt 0.775758 0.707942
vt 0.782270 0.704433
vt 0.788911 0.703480
vt 0.795423 0.705121
vt 0.801558 0.709290
vt 0.807079 0.715829
vt 0.811774 0.724486
vt 0.815463 0.734929
vt 0.818004 0.746755
vt 0.819299 0.759511
vt 0.819299 0.772707
vt 0.818004 0.785835
vt 0.815463 0.798391
vt 0.811774 0.809892
vt 0.807078 0.819896
vt 0.801557 0.828019
vt 0.795423 0.833949
vt 0.263440 0.995486
vt 0.263440 0.003970
vt 0.247026 0.993715
vt 0.247026 0.004957
vt 0.255500 0.004556
vt 0.255500 0.993313
vt 0.236726 0.994042
vt 0.236726 0.005284
vt 0.224996 0.994280
vt 0.224996 0.005522
vt 0.212286 0.994421
vt 0.212286 0.005664
vt 0.199084 0.994460
vt 0.199084 0.005703
vt 0.185899 0.994395
vt 0.185899 0.005638
vt 0.173236 0.994229
vt 0.173236 0.005471
vt 0.161583 0.993967
vt 0.161583 0.005209
vt 0.151387 0.993620
vt 0.151387 0.004863
vt 0.143041 0.993202
vt 0.143041 0.004444
vt 0.136864 0.992728
vt 0.136864 0.003970
vt 0.662198 0.992400
vt 0.662198 0.004310
vt 0.668535 0.003970
vt 0.668535 0.992060
vt 0.655603 0.992515
vt 0.655603 0.004425
vt 0.649004 0.992402
vt 0.649004 0.004312
vt 0.642653 0.992064
vt 0.642653 0.003974
vt 0.122586 0.995981
vt 0.122586 0.004061
vt 0.128924 0.004098
vt 0.128924 0.996018
vt 0.114098 0.995949
vt 0.114098 0.004029
vt 0.103786 0.995923
vt 0.103786 0.004003
vt 0.092048 0.995904
vt 0.092048 0.003984
vt 0.079332 0.995893
vt 0.079332 0.003973
vt 0.066130 0.995890
vt 0.066130 0.003970
vt 0.052947 0.995895
vt 0.052947 0.003975
vt 0.040290 0.995909
vt 0.040290 0.003989
vt 0.028646 0.995930
vt 0.028646 0.004010
vt 0.018462 0.995958
vt 0.018462 0.004038
vt 0.010130 0.995992
vt 0.010130 0.004072
vt 0.003970 0.996030
vt 0.003970 0.004110
vt 0.295571 0.004077
vt 0.295571 0.995593
s 0
usemtl Material.005
f 2/1/1 5/2/1 4/3/1 1/4/1
f 1/5/2 3/6/2 8/7/2 2/8/2
f 4/9/3 6/10/3 3/11/3 1/12/3
f 5/13/4 7/14/4 6/15/4 4/16/4
f 7/17/5 8/18/5 3/19/5 6/20/5
f 2/21/6 8/22/6 7/23/6 5/24/6
s 1
f 10/25/7 13/26/8 12/27/9 9/28/10
f 9/29/10 11/30/11 16/31/12 10/32/7
f 12/33/9 14/34/13 11/35/11 9/36/10
f 13/37/8 15/38/14 14/39/13 12/40/9
f 15/41/14 16/42/12 11/43/11 14/44/13
f 10/45/7 16/46/12 15/47/14 13/48/8
f 17/49/15 20/50/16 22/51/17 18/52/18
f 18/53/18 40/54/19 19/55/20 17/56/15
f 19/57/20 21/58/21 20/59/16 17/60/15
f 21/58/21 25/61/22 23/62/23 20/59/16
f 20/50/16 23/63/23 26/64/24 22/51/17
f 25/61/22 31/65/25 24/66/26 23/62/23
f 23/62/23 24/66/26 27/67/27 26/68/24
f 22/69/17 26/70/24 28/71/28 29/72/29
f 26/70/24 27/73/27 30/74/30 28/71/28
f 29/75/29 28/76/28 25/77/22 21/78/21
f 28/76/28 30/79/30 31/80/25 25/77/22
f 30/74/30 27/73/27 33/81/31 32/82/32
f 31/65/25 30/83/30 32/84/32 34/85/33
f 32/82/32 33/81/31 36/86/34 35/87/35
f 34/85/33 32/84/32 35/88/35 37/89/36
f 35/90/35 36/91/34 38/92/37 37/93/36
f 39/94/38 34/85/33 37/89/36 38/95/37
f 33/96/31 39/94/38 38/95/37 36/97/34
f 27/67/27 24/66/26 39/94/38 33/96/31
f 24/66/26 31/65/25 34/85/33 39/94/38
f 18/98/18 22/69/17 29/72/29 40/99/19
f 40/100/19 29/75/29 21/78/21 19/101/20
f 41/102/39 44/103/40 46/104/41 42/105/42
f 42/106/42 50/107/43 43/108/44 41/109/39
f 43/108/44 47/110/45 44/111/40 41/109/39
f 44/103/40 45/112/46 53/113/47 46/104/41
f 47/110/45 48/114/48 45/115/46 44/111/40
f 50/116/43 49/117/49 47/118/45 43/119/44
f 49/117/49 51/120/50 48/121/48 47/118/45
f 42/122/42 46/123/41 49/124/49 50/125/43
f 46/123/41 53/126/47 51/127/50 49/124/49
f 53/126/47 54/128/51 52/129/52 51/127/50
f 51/120/50 52/130/52 58/131/53 48/121/48
f 45/112/46 56/132/54 54/133/51 53/113/47
f 54/128/51 55/134/55 60/135/56 52/129/52
f 56/132/54 57/136/57 55/137/55 54/133/51
f 58/131/53 59/138/58 57/139/57 56/140/54
f 48/121/48 58/131/53 56/140/54 45/141/46
f 52/130/52 60/142/56 59/138/58 58/131/53
f 59/143/58 60/144/56 62/145/59 61/146/60
f 57/139/57 59/138/58 61/147/60 63/148/61
f 61/147/60 62/149/59 65/150/62 64/151/63
f 63/148/61 61/147/60 64/151/63 66/152/64
f 65/153/62 67/154/65 66/155/64 64/156/63
f 68/157/66 63/158/61 66/159/64 67/160/65
f 62/161/59 68/162/66 67/154/65 65/153/62
f 55/163/55 57/164/57 63/158/61 68/157/66
f 60/165/56 55/166/55 68/162/66 62/161/59
f 69/167/67 72/168/68 74/169/69 70/170/70
f 70/171/70 78/172/71 71/173/72 69/174/67
f 71/175/72 75/176/73 72/177/68 69/178/67
f 72/179/68 73/180/74 81/181/75 74/182/69
f 75/176/73 76/183/76 73/184/74 72/177/68
f 78/185/71 77/186/77 75/187/73 71/188/72
f 77/189/77 79/190/78 76/183/76 75/176/73
f 70/171/70 74/191/69 77/192/77 78/172/71
f 74/191/69 81/193/75 79/194/78 77/192/77
f 81/193/75 82/195/79 80/196/80 79/194/78
f 79/190/78 80/197/80 86/198/81 76/183/76
f 73/180/74 84/199/82 82/200/79 81/181/75
f 82/195/79 83/201/83 88/202/84 80/196/80
f 84/203/82 85/204/85 83/205/83 82/206/79
f 86/198/81 87/207/86 85/208/85 84/209/82
f 76/183/76 86/198/81 84/209/82 73/184/74
f 80/197/80 88/210/84 87/207/86 86/198/81
f 87/211/86 88/212/84 90/213/87 89/214/88
f 85/208/85 87/207/86 89/215/88 91/216/89
f 89/217/88 90/218/87 93/219/90 92/220/91
f 91/221/89 89/222/88 92/223/91 94/224/92
f 93/225/90 95/226/93 94/224/92 92/223/91
f 96/227/94 91/228/89 94/229/92 95/230/93
f 90/218/87 96/231/94 95/232/93 93/219/90
f 83/205/83 85/204/85 91/233/89 96/234/94
f 88/235/84 83/236/83 96/231/94 90/218/87
f 97/237/95 98/238/96 157/239/97 156/240/98 155/241/99 154/242/100 149/243/101 148/244/102 147/245/103 146/246/104 141/247/105 140/248/106 139/249/107 138/250/108 133/251/109 132/252/110 131/253/111 130/254/112 125/255/113 124/256/114 123/257/115 122/258/116 117/259/117 116/260/118 115/261/119 114/262/120 109/263/121 108/264/122 107/265/123 106/266/124 101/267/125 100/268/126
f 97/269/95 99/270/127 160/271/128 98/272/96
f 100/273/126 102/274/129 99/270/127 97/269/95
f 101/275/125 103/276/130 102/274/129 100/273/126
f 160/277/128 99/278/127 102/279/129 103/280/130 104/281/131 105/282/132 110/283/133 111/284/134 112/285/135 113/286/136 118/287/137 119/288/138 120/289/139 121/290/140 126/291/141 127/292/142 128/293/143 129/294/144 134/295/145 135/296/146 136/297/147 137/298/148 142/299/149 143/300/150 144/301/151 145/302/152 150/303/153 151/304/154 152/305/155 153/306/156 158/307/157 159/308/158
f 106/309/124 104/310/131 103/276/130 101/275/125
f 107/311/123 105/312/132 104/313/131 106/314/124
f 108/315/122 110/316/133 105/312/132 107/311/123
f 109/317/121 111/318/134 110/316/133 108/315/122
f 114/319/120 112/320/135 111/318/134 109/317/121
f 115/321/119 113/322/136 112/320/135 114/319/120
f 116/323/118 118/324/137 113/322/136 115/321/119
f 117/325/117 119/326/138 118/324/137 116/323/118
f 122/327/116 120/328/139 119/326/138 117/325/117
f 123/329/115 121/330/140 120/328/139 122/327/116
f 124/331/114 126/332/141 121/330/140 123/329/115
f 125/333/113 127/334/142 126/332/141 124/331/114
f 130/335/112 128/336/143 127/337/142 125/338/113
f 131/339/111 129/340/144 128/336/143 130/335/112
f 132/341/110 134/342/145 129/340/144 131/339/111
f 133/343/109 135/344/146 134/342/145 132/341/110
f 138/345/108 136/346/147 135/347/146 133/348/109
f 139/349/107 137/350/148 136/346/147 138/345/108
f 140/351/106 142/352/149 137/350/148 139/349/107
f 141/353/105 143/354/150 142/352/149 140/351/106
f 146/355/104 144/356/151 143/354/150 141/353/105
f 147/357/103 145/358/152 144/356/151 146/355/104
f 148/359/102 150/360/153 145/358/152 147/357/103
f 149/361/101 151/362/154 150/360/153 148/359/102
f 154/363/100 152/364/155 151/362/154 149/361/101
f 155/365/99 153/366/156 152/364/155 154/363/100
f 156/367/98 158/368/157 153/366/156 155/365/99
f 157/369/97 159/370/158 158/368/157 156/367/98
f 98/272/96 160/271/128 159/371/158 157/372/97
