# Blender 4.0.1
# www.blender.org
mtllib floor_and_roads.mtl
g Plane_Plane
v 55.072681 0.000000 -55.072701
v -55.072681 0.000000 -55.072701
v 55.072681 0.000000 55.072701
v -55.072681 0.000000 55.072701
v 5.500000 0.180880 -54.926067
v -5.500000 0.180880 -54.926067
v 5.500000 0.180880 -4.893284
v -5.500000 0.180880 -4.893284
v -54.848232 0.161618 -5.499997
v -54.848232 0.161618 5.500002
v 54.848232 0.161618 -5.500002
v 54.848232 0.161618 5.499997
v -0.328210 0.387025 54.747929
v 0.328210 0.387025 54.747929
v -0.328210 0.387025 8.768584
v 0.328210 0.387025 8.768584
v -8.644661 0.314186 -5.468056
v -8.953208 0.314186 -5.468056
v -8.644661 0.314186 5.468056
v -8.953208 0.314186 5.468056
v -0.328210 0.469007 -8.376669
v 0.328210 0.469007 -8.376669
v -0.328210 0.469007 -54.356014
v 0.328210 0.469007 -54.356014
v -9.075809 0.353540 0.353573
v -9.075809 0.353540 -0.302847
v -54.854027 0.353540 0.353575
v -54.854027 0.353540 -0.302845
v -5.480955 0.314186 5.489242
v -5.480955 0.314186 5.797789
v 5.480954 0.314186 5.489241
v 5.480954 0.314186 5.797788
v 54.799458 0.454551 0.353573
v 54.799458 0.454551 -0.302847
v 9.021240 0.454551 0.353575
v 9.021240 0.454551 -0.302845
v 5.500000 0.242314 5.102487
v -5.500000 0.242314 5.102487
v 5.500000 0.242314 55.135265
v -5.500000 0.242314 55.135265
v -5.546378 0.418914 -5.456294
v -5.854925 0.418914 -5.456294
v -5.546378 0.418914 5.456294
v -5.854925 0.418914 5.456294
v 5.847678 0.209457 -5.454536
v 5.539131 0.209457 -5.454536
v 5.847678 0.209457 5.454536
v 5.539131 0.209457 5.454536
v 8.956621 0.314186 -5.468056
v 8.648075 0.314186 -5.468056
v 8.956621 0.314186 5.468056
v 8.648075 0.314186 5.468056
v -5.480955 0.314186 8.336384
v -5.480955 0.314186 8.644931
v 5.480954 0.314186 8.336384
v 5.480954 0.314186 8.644931
v -5.504080 0.209457 -5.797788
v -5.504080 0.209457 -5.489241
v 5.504080 0.209457 -5.797788
v 5.504080 0.209457 -5.489241
v -5.452179 0.209457 -8.381846
v -5.452179 0.209457 -8.073299
v 5.452178 0.209457 -8.381846
v 5.452178 0.209457 -8.073299
vn -0.0000 -1.0000 -0.0000
vt 0.000000 0.000000
vt 1.000000 0.000000
vt 1.000000 1.000000
vt 0.000000 1.000000
s 0
usemtl Material.008
f 1/1/1 3/4/1 4/3/1 2/2/1
usemtl road1
f 5/1/1 7/4/1 8/3/1 6/2/1
f 37/1/1 39/4/1 40/3/1 38/2/1
usemtl road2
f 9/1/1 11/4/1 12/3/1 10/2/1
usemtl divider3
f 13/1/1 15/4/1 16/3/1 14/2/1
usemtl path1
f 17/1/1 19/4/1 20/3/1 18/2/1
f 49/1/1 51/4/1 52/3/1 50/2/1
usemtl divider2
f 21/1/1 23/4/1 24/3/1 22/2/1
usemtl divider4
f 25/1/1 27/4/1 28/3/1 26/2/1
usemtl Material.001
f 29/1/1 31/4/1 32/3/1 30/2/1
f 53/1/1 55/4/1 56/3/1 54/2/1
usemtl divider
f 33/1/1 35/4/1 36/3/1 34/2/1
usemtl Material.007
f 41/1/1 43/4/1 44/3/1 42/2/1
usemtl Material.006
f 45/1/1 47/4/1 48/3/1 46/2/1
usemtl Material.003
f 57/1/1 59/4/1 60/3/1 58/2/1
usemtl Material.002
f 61/1/1 63/4/1 64/3/1 62/2/1
